<svg width="43" height="42" viewBox="0 0 43 42" fill="none" xmlns="http://www.w3.org/2000/svg">
<path d="M25.8035 31.6538C33.442 31.6538 39.6343 25.4616 39.6343 17.823C39.6343 10.1845 33.442 3.99219 25.8035 3.99219C18.1649 3.99219 11.9727 10.1845 11.9727 17.823C11.9727 25.4616 18.1649 31.6538 25.8035 31.6538Z" fill="#5DA5BC"/>
<path d="M2.61664 34.2333C1.17394 34.2333 0 33.0593 0 31.6166C0 30.1739 1.17394 29 2.61664 29C4.05935 29 5.23329 30.1739 5.23329 31.6166C5.23329 33.0593 4.05935 34.2333 2.61664 34.2333ZM2.61664 30.4952C1.99818 30.4952 1.49522 30.9982 1.49522 31.6166C1.49522 32.2351 1.99818 32.7381 2.61664 32.7381C3.23511 32.7381 3.73806 32.2351 3.73806 31.6166C3.73806 30.9982 3.23511 30.4952 2.61664 30.4952Z" fill="#EFAF00"/>
<path d="M41.9398 18.6921C42.3812 18.6921 42.739 18.3343 42.739 17.8929C42.739 17.4516 42.3812 17.0938 41.9398 17.0938C41.4984 17.0938 41.1406 17.4516 41.1406 17.8929C41.1406 18.3343 41.4984 18.6921 41.9398 18.6921Z" fill="white"/>
<path d="M14.2758 41.8718C14.7171 41.8718 15.075 41.514 15.075 41.0726C15.075 40.6313 14.7171 40.2734 14.2758 40.2734C13.8344 40.2734 13.4766 40.6313 13.4766 41.0726C13.4766 41.514 13.8344 41.8718 14.2758 41.8718Z" fill="white"/>
<path d="M38.7475 3.69928C38.5563 3.69928 38.3649 3.6262 38.219 3.48023C37.927 3.18829 37.927 2.71505 38.219 2.42311L40.4231 0.218957C40.715 -0.0729857 41.1883 -0.0729857 41.4802 0.218957C41.7722 0.5109 41.7722 0.984138 41.4802 1.27608L39.2761 3.48023C39.1301 3.62639 38.9387 3.69928 38.7475 3.69928Z" fill="white"/>
<path d="M40.9517 3.69928C40.7605 3.69928 40.5691 3.6262 40.4231 3.48023L38.219 1.27608C37.927 0.984138 37.927 0.5109 38.219 0.218957C38.5109 -0.0729857 38.9841 -0.0729857 39.2761 0.218957L41.4802 2.42311C41.7722 2.71505 41.7722 3.18829 41.4802 3.48023C41.3343 3.62639 41.1429 3.69928 40.9517 3.69928Z" fill="white"/>
<path d="M33.5622 8.50391H11.5123C10.4009 8.50391 9.5 9.40485 9.5 10.5162V32.6516C9.5 33.763 10.4009 34.6639 11.5123 34.6639H33.5622C34.6736 34.6639 35.5745 33.763 35.5745 32.6516V10.5162C35.5745 9.40485 34.6736 8.50391 33.5622 8.50391Z" fill="#4A3CAB"/>
<path d="M33.5639 8.50391H32.0547C33.1661 8.50391 34.067 9.40485 34.067 10.5162V32.6516C34.067 33.763 33.1661 34.6639 32.0547 34.6639H33.5639C34.6753 34.6639 35.5762 33.763 35.5762 32.6516V10.5162C35.5762 9.40485 34.6753 8.50391 33.5639 8.50391Z" fill="#4A3CAB"/>
<path d="M19.4793 34.6641V36.1733C19.4793 37.0068 18.8036 37.6825 17.9701 37.6825H13.0249C12.1913 37.6825 11.5156 37.0068 11.5156 36.1733V34.6641H19.4793Z" fill="#7A71B4"/>
<path d="M17.9702 34.6641V36.1733C17.9702 37.0068 17.2945 37.6825 16.4609 37.6825H17.9702C18.8037 37.6825 19.4794 37.0068 19.4794 36.1733V34.6641H17.9702Z" fill="white" fill-opacity="0.26"/>
<path d="M33.4793 34.6641V36.1733C33.4793 37.0068 32.8036 37.6825 31.9701 37.6825H27.0249C26.1913 37.6825 25.5156 37.0068 25.5156 36.1733V34.6641H33.4793Z" fill="#7A71B4"/>
<path d="M31.9702 34.6641V36.1733C31.9702 37.0068 31.2945 37.6825 30.4609 37.6825H31.9702C32.8037 37.6825 33.4794 37.0068 33.4794 36.1733V34.6641H31.9702Z" fill="white" fill-opacity="0.26"/>
<path d="M30.5452 15.0419V18.0604C30.5469 18.6154 30.9964 19.0649 31.5514 19.0665H32.0544V24.0973H31.5514C30.9964 24.0989 30.5469 24.5485 30.5452 25.1034V28.1219C30.5469 28.6769 30.9964 29.1264 31.5514 29.1281H32.0544V30.1342C32.0528 30.6892 31.6033 31.1387 31.0483 31.1404H13.9437C13.3887 31.1387 12.9392 30.6892 12.9375 30.1342V13.0296C12.9392 12.4746 13.3887 12.0251 13.9437 12.0234H31.0483C31.6033 12.0251 32.0528 12.4746 32.0544 13.0296V14.0357H31.5514C30.9964 14.0374 30.5469 14.4869 30.5452 15.0419Z" fill="#4A3CAB"/>
<path d="M31.5544 14.0357H32.0575V13.0296C32.0559 12.4746 31.6064 12.0251 31.0514 12.0234H29.5421C30.0971 12.0251 30.5466 12.4746 30.5483 13.0296V14.0357H30.0452C29.4902 14.0374 29.0407 14.4869 29.0391 15.0419V18.0604C29.0407 18.6154 29.4902 19.0649 30.0452 19.0665H30.5483V24.0973H30.0452C29.4902 24.0989 29.0407 24.5485 29.0391 25.1034V28.1219C29.0407 28.6769 29.4902 29.1264 30.0452 29.1281H30.5483V30.1342C30.5466 30.6892 30.0971 31.1387 29.5421 31.1404H31.0514C31.6064 31.1387 32.0559 30.6892 32.0575 30.1342V29.1281H31.5544C30.9995 29.1264 30.55 28.6769 30.5483 28.1219V25.1034C30.55 24.5485 30.9995 24.0989 31.5544 24.0973H32.0575V19.0665H31.5544C30.9995 19.0649 30.55 18.6154 30.5483 18.0604V15.0419C30.55 14.4869 30.9995 14.0374 31.5544 14.0357Z" fill="#4A3CAB"/>
<path d="M22.4948 27.1185C25.551 27.1185 28.0286 24.6409 28.0286 21.5846C28.0286 18.5284 25.551 16.0508 22.4948 16.0508C19.4385 16.0508 16.9609 18.5284 16.9609 21.5846C16.9609 24.6409 19.4385 27.1185 22.4948 27.1185Z" fill="#5747BF"/>
<path d="M27.6096 19.466C26.6446 17.1429 24.2341 15.7629 21.7422 16.107C24.4863 16.4741 26.5352 18.8154 26.5352 21.584C26.5352 24.3526 24.4863 26.6939 21.7422 27.061C23.7074 27.3366 25.6694 26.5373 26.8827 24.9671C28.096 23.3968 28.3742 21.2965 27.6116 19.4645L27.6096 19.466Z" fill="#7A71B4"/>
<path d="M22.4998 24.0972C23.889 24.0972 25.0151 22.971 25.0151 21.5818C25.0151 20.1926 23.889 19.0664 22.4998 19.0664C21.1106 19.0664 19.9844 20.1926 19.9844 21.5818C19.9844 22.971 21.1106 24.0972 22.4998 24.0972Z" fill="white"/>
<path d="M32.5592 14.0352H31.553C30.9973 14.0352 30.5469 14.4856 30.5469 15.0413V18.0598C30.5469 18.6155 30.9973 19.0659 31.553 19.0659H32.5592C33.1149 19.0659 33.5653 18.6155 33.5653 18.0598V15.0413C33.5653 14.4856 33.1149 14.0352 32.5592 14.0352Z" fill="#7A71B4"/>
<path d="M32.5624 14.0352H31.5562C31.4712 14.0361 31.3866 14.0483 31.3047 14.0714C31.7474 14.1857 32.0574 14.5841 32.0593 15.0413V18.0598C32.0574 18.517 31.7474 18.9154 31.3047 19.0297C31.3866 19.0528 31.4712 19.065 31.5562 19.0659H32.5624C33.1174 19.0643 33.5669 18.6148 33.5685 18.0598V15.0413C33.5669 14.4863 33.1174 14.0368 32.5624 14.0352Z" fill="#9E9E9E" fill-opacity="0.42"/>
<path d="M32.5592 24.0977H31.553C30.9973 24.0977 30.5469 24.5481 30.5469 25.1038V28.1223C30.5469 28.678 30.9973 29.1284 31.553 29.1284H32.5592C33.1149 29.1284 33.5653 28.678 33.5653 28.1223V25.1038C33.5653 24.5481 33.1149 24.0977 32.5592 24.0977Z" fill="#7A71B4"/>
<path d="M32.5624 24.0977H31.5562C31.4712 24.0986 31.3866 24.1108 31.3047 24.1339C31.7474 24.2482 32.0574 24.6466 32.0593 25.1038V28.1223C32.0574 28.5795 31.7474 28.9779 31.3047 29.0922C31.3866 29.1153 31.4712 29.1275 31.5562 29.1284H32.5624C33.1174 29.1268 33.5669 28.6773 33.5685 28.1223V25.1038C33.5669 24.5488 33.1174 24.0993 32.5624 24.0977Z" fill="#9E9E9E" fill-opacity="0.19"/>
<path d="M14.9523 17.0567C14.6745 17.0567 14.4492 16.8315 14.4492 16.5536V14.0382C14.4492 13.7604 14.6745 13.5352 14.9523 13.5352H17.4677C17.7455 13.5352 17.9708 13.7604 17.9708 14.0382C17.9708 14.3161 17.7455 14.5413 17.4677 14.5413H15.4554V16.5536C15.4554 16.8315 15.2301 17.0567 14.9523 17.0567Z" fill="#F5F5F5"/>
<path d="M11.0108 35.1159V36.1723C11.0108 37.2837 11.9117 38.1846 13.0231 38.1846H17.9699C19.0812 38.1846 19.9822 37.2837 19.9822 36.1723V35.1662H25.0129V36.1723C25.0129 37.2837 25.9139 38.1846 27.0253 38.1846H31.972C33.0834 38.1846 33.9843 37.2837 33.9843 36.1723V35.1239C35.192 34.9199 36.0772 33.8756 36.0806 32.6508V10.5154C36.079 9.12687 34.9538 8.00166 33.5653 8H11.5154C10.1269 8.00166 9.00166 9.12687 9 10.5154V12.5277C9 12.8055 9.22524 13.0308 9.50308 13.0308C9.78092 13.0308 10.0062 12.8055 10.0062 12.5277V10.5154C10.0062 9.68186 10.6819 9.00615 11.5154 9.00615H33.5653C34.3988 9.00615 35.0745 9.68186 35.0745 10.5154V32.6508C35.0745 33.4843 34.3988 34.16 33.5653 34.16H11.5154C10.6819 34.16 10.0062 33.4843 10.0062 32.6508V15.0431C10.0062 14.7652 9.78092 14.54 9.50308 14.54C9.22524 14.54 9 14.7652 9 15.0431V32.6508C9.00136 33.8452 9.84103 34.8746 11.0108 35.1159ZM32.9782 35.1662V36.1723C32.9782 36.728 32.5277 37.1785 31.972 37.1785H27.0253C26.4696 37.1785 26.0191 36.728 26.0191 36.1723V35.1662H32.9782ZM18.976 35.1662V36.1723C18.976 36.728 18.5256 37.1785 17.9699 37.1785H13.0231C12.4674 37.1785 12.017 36.728 12.017 36.1723V35.1662H18.976Z" fill="#25274B"/>
<path d="M12.9406 25.1065C12.6627 25.1065 12.4375 25.3318 12.4375 25.6096V30.1373C12.4375 30.9708 13.1132 31.6465 13.9467 31.6465H31.0514C31.8849 31.6465 32.5606 30.9708 32.5606 30.1373V29.6342C33.3941 29.6342 34.0698 28.9585 34.0698 28.125V25.1065C34.0698 24.273 33.3941 23.5973 32.5606 23.5973V19.5727C33.3941 19.5727 34.0698 18.897 34.0698 18.0634V15.045C34.0698 14.2115 33.3941 13.5357 32.5606 13.5357V13.0327C32.5606 12.1991 31.8849 11.5234 31.0514 11.5234H13.9467C13.1132 11.5234 12.4375 12.1991 12.4375 13.0327V23.0942C12.4375 23.3721 12.6627 23.5973 12.9406 23.5973C13.2184 23.5973 13.4437 23.3721 13.4437 23.0942V13.0327C13.4437 12.7548 13.6689 12.5296 13.9467 12.5296H31.0514C31.3292 12.5296 31.5544 12.7548 31.5544 13.0327V13.5357C30.7209 13.5357 30.0452 14.2115 30.0452 15.045V18.0634C30.0452 18.897 30.7209 19.5727 31.5544 19.5727V23.5973C30.7209 23.5973 30.0452 24.273 30.0452 25.1065V28.125C30.0452 28.9585 30.7209 29.6342 31.5544 29.6342V30.1373C31.5544 30.4151 31.3292 30.6404 31.0514 30.6404H13.9467C13.6689 30.6404 13.4437 30.4151 13.4437 30.1373V25.6096C13.4437 25.3318 13.2184 25.1065 12.9406 25.1065ZM31.0514 18.0634V15.045C31.0514 14.7671 31.2766 14.5419 31.5544 14.5419H32.5606C32.8384 14.5419 33.0637 14.7671 33.0637 15.045V18.0634C33.0637 18.3413 32.8384 18.5665 32.5606 18.5665H31.5544C31.2766 18.5665 31.0514 18.3413 31.0514 18.0634ZM31.0514 28.125V25.1065C31.0514 24.8287 31.2766 24.6034 31.5544 24.6034H32.5606C32.8384 24.6034 33.0637 24.8287 33.0637 25.1065V28.125C33.0637 28.4028 32.8384 28.6281 32.5606 28.6281H31.5544C31.2766 28.6281 31.0514 28.4028 31.0514 28.125Z" fill="#25274B"/>
<path d="M16.9202 23.8945C18.0223 26.5554 20.8506 28.0672 23.6753 27.5053C26.5001 26.9435 28.5346 24.4645 28.5346 21.5844C28.5346 18.7043 26.5001 16.2253 23.6753 15.6635C20.8506 15.1016 18.0223 16.6134 16.9202 19.2743C16.3026 20.7524 16.3026 22.4164 16.9202 23.8945ZM20.1168 17.1533L20.2999 17.595C20.3661 17.7648 20.519 17.8856 20.6996 17.9106C20.8802 17.9356 21.0601 17.861 21.17 17.7155C21.2799 17.57 21.3025 17.3765 21.2291 17.2096L21.0464 16.7679C21.9923 16.4802 23.0023 16.4802 23.9482 16.7679L23.7656 17.2096C23.6921 17.3765 23.7147 17.57 23.8246 17.7155C23.9345 17.861 24.1145 17.9356 24.295 17.9106C24.4756 17.8856 24.6285 17.7648 24.6948 17.595L24.8779 17.1528C25.75 17.6183 26.4641 18.3326 26.9294 19.2048L26.4877 19.388C26.3179 19.4542 26.1971 19.6071 26.1721 19.7877C26.1471 19.9683 26.2218 20.1482 26.3672 20.2581C26.5127 20.368 26.7062 20.3906 26.8731 20.3171L27.3148 20.1345C27.6025 21.0804 27.6025 22.0904 27.3148 23.0363L26.8731 22.8537C26.7062 22.7802 26.5127 22.8028 26.3672 22.9127C26.2218 23.0226 26.1471 23.2026 26.1721 23.3831C26.1971 23.5637 26.3179 23.7166 26.4877 23.7828L26.9299 23.966C26.4644 24.8381 25.7501 25.5522 24.8779 26.0175L24.6948 25.5758C24.6285 25.406 24.4756 25.2852 24.295 25.2602C24.1145 25.2352 23.9345 25.3099 23.8246 25.4553C23.7147 25.6008 23.6921 25.7943 23.7656 25.9612L23.9482 26.4029C23.0023 26.6906 21.9923 26.6906 21.0464 26.4029L21.2291 25.9612C21.3025 25.7943 21.2799 25.6008 21.17 25.4553C21.0601 25.3099 20.8802 25.2352 20.6996 25.2602C20.519 25.2852 20.3661 25.406 20.2999 25.5758L20.1168 26.018C19.2446 25.5525 18.5305 24.8382 18.0652 23.966L18.5069 23.7828C18.6768 23.7166 18.7975 23.5637 18.8225 23.3831C18.8475 23.2026 18.7729 23.0226 18.6274 22.9127C18.4819 22.8028 18.2884 22.7802 18.1215 22.8537L17.6798 23.0363C17.3921 22.0904 17.3921 21.0804 17.6798 20.1345L18.1215 20.3171C18.2884 20.3906 18.4819 20.368 18.6274 20.2581C18.7729 20.1482 18.8475 19.9683 18.8225 19.7877C18.7975 19.6071 18.6768 19.4542 18.5069 19.388L18.0647 19.2048C18.5301 18.3323 19.2444 17.6179 20.1168 17.1523V17.1533Z" fill="#25274B"/>
<path d="M22.4999 24.5994C23.8292 24.5974 25.0007 23.7259 25.3849 22.4533C25.769 21.1807 25.2755 19.8066 24.1693 19.0693C23.0632 18.332 21.605 18.4052 20.5782 19.2494C19.5514 20.0937 19.1977 21.5103 19.7073 22.738C20.1767 23.8657 21.2785 24.6001 22.4999 24.5994ZM21.7257 19.7196C22.7525 19.296 23.9284 19.7845 24.3528 20.8111C24.7771 21.8376 24.2894 23.0139 23.2631 23.439C22.2369 23.864 21.0603 23.3771 20.6345 22.3512C20.4282 21.8577 20.4274 21.3023 20.6323 20.8082C20.8372 20.3142 21.2307 19.9223 21.7257 19.7196Z" fill="#25274B"/>
</svg>
