<svg width="25" height="24" viewBox="0 0 25 24" fill="none" xmlns="http://www.w3.org/2000/svg">
<path d="M10.9883 21.5984H8.58828C6.60006 21.5984 4.98828 19.9867 4.98828 17.9984V5.99844C4.98828 4.01021 6.60006 2.39844 8.58828 2.39844H16.9883C18.9765 2.39844 20.5883 4.01021 20.5883 5.99844V8.99844M16.3883 7.19844H8.58828M12.7883 10.7984H8.58828M10.9883 14.3984H8.58828M14.5883 14.6984L15.9783 14.0034C16.9918 13.4967 18.1848 13.4967 19.1983 14.0034L20.5883 14.6984C20.5883 14.6984 20.5883 16.8884 20.5883 18.0434C20.5883 19.1984 19.5206 19.9781 17.5883 21.1984C15.6559 19.9781 14.5883 18.9484 14.5883 18.0434V14.6984Z" stroke="#6352D0" stroke-linecap="round" stroke-linejoin="round"/>
</svg>
