<svg width="41" height="38" viewBox="0 0 41 38" fill="none" xmlns="http://www.w3.org/2000/svg">
<path d="M19.7996 27.6617C27.4381 27.6617 33.6304 21.4694 33.6304 13.8308C33.6304 6.19227 27.4381 0 19.7996 0C12.161 0 5.96875 6.19227 5.96875 13.8308C5.96875 21.4694 12.161 27.6617 19.7996 27.6617Z" fill="#5DA5BC"/>
<path d="M37.6166 5.2411C36.1739 5.2411 35 4.06716 35 2.62446C35 1.18175 36.1739 0.0078125 37.6166 0.0078125C39.0593 0.0078125 40.2333 1.18175 40.2333 2.62446C40.2333 4.06716 39.0593 5.2411 37.6166 5.2411ZM37.6166 1.50304C36.9982 1.50304 36.4952 2.00599 36.4952 2.62446C36.4952 3.24292 36.9982 3.74587 37.6166 3.74587C38.2351 3.74587 38.7381 3.24292 38.7381 2.62446C38.7381 2.00599 38.2351 1.50304 37.6166 1.50304Z" fill="#EFAF00"/>
<path d="M35.9398 14.7C36.3812 14.7 36.739 14.3421 36.739 13.9008C36.739 13.4594 36.3812 13.1016 35.9398 13.1016C35.4984 13.1016 35.1406 13.4594 35.1406 13.9008C35.1406 14.3421 35.4984 14.7 35.9398 14.7Z" fill="white"/>
<path d="M8.27576 37.8796C8.71715 37.8796 9.07496 37.5218 9.07496 37.0804C9.07496 36.6391 8.71715 36.2812 8.27576 36.2812C7.83438 36.2812 7.47656 36.6391 7.47656 37.0804C7.47656 37.5218 7.83438 37.8796 8.27576 37.8796Z" fill="white"/>
<path d="M22.4506 3.82037C22.2594 3.82037 22.0681 3.74729 21.9221 3.60132C21.6301 3.30938 21.6301 2.83614 21.9221 2.5442L24.1262 0.340051C24.4182 0.0481081 24.8914 0.0481081 25.1834 0.340051C25.4753 0.631993 25.4753 1.10523 25.1834 1.39717L22.9792 3.60132C22.8332 3.74748 22.6418 3.82037 22.4506 3.82037Z" fill="white"/>
<path d="M24.6548 3.82037C24.4636 3.82037 24.2722 3.74729 24.1262 3.60132L21.9221 1.39717C21.6301 1.10523 21.6301 0.631993 21.9221 0.340051C22.214 0.0481081 22.6873 0.0481081 22.9792 0.340051L25.1834 2.5442C25.4753 2.83614 25.4753 3.30938 25.1834 3.60132C25.0374 3.74748 24.846 3.82037 24.6548 3.82037Z" fill="white"/>
<path fill-rule="evenodd" clip-rule="evenodd" d="M16.0859 10.4609H25.1517C27.1997 10.4609 28.9167 11.907 29.2625 13.9247L31.9735 29.1801C32.1993 30.4301 31.8832 31.6196 31.055 32.5987C30.2422 33.5772 29.1276 34.0893 27.8478 34.0893H16.0859V10.4609Z" fill="#4A3CAB"/>
<path fill-rule="evenodd" clip-rule="evenodd" d="M8.86008 10.4609H19.2805C21.3285 10.4609 23.0604 11.907 23.4073 13.9247L26.1183 29.1801C26.344 30.4301 26.0274 31.6196 25.1997 32.5987C24.3715 33.5772 23.2724 34.0893 21.992 34.0893H6.15017C4.87039 34.0893 3.7707 33.5772 2.94248 32.5987C2.11427 31.6196 1.79817 30.4301 2.02395 29.1801L4.73492 13.9247C5.0797 11.907 6.7967 10.4609 8.86008 10.4609Z" fill="#4A3CAB"/>
<path fill-rule="evenodd" clip-rule="evenodd" d="M10.1222 18.2314L11.5981 16.9362C12.1405 16.4692 12.9379 16.4692 13.4803 16.9362L14.9561 18.2314C15.2722 18.5028 15.4379 18.8789 15.4379 19.3008V24.6616C15.4379 25.4601 14.7903 26.0923 14.0073 26.0923H11.0557C10.2721 26.0923 9.625 25.4601 9.625 24.6616V19.3008C9.625 18.8789 9.79128 18.5028 10.1222 18.2314Z" fill="white"/>
<path d="M32.0786 28.7007L29.3677 13.4447C28.9628 11.1843 27.0078 9.54378 24.7187 9.54378H24.6778V8.46322C24.6778 5.45528 22.2303 3.00781 19.2218 3.00781C18.2034 3.00781 17.2525 3.29362 16.436 3.78131C15.6194 3.29362 14.669 3.00781 13.6501 3.00781C10.6337 3.00781 8.17982 5.45475 8.17982 8.46322V9.55441C5.99797 9.66703 4.16569 11.2656 3.77522 13.4458L1.08072 28.6991C0.82413 30.1175 1.18219 31.4509 2.11294 32.5512C3.02776 33.6519 4.27779 34.2336 5.72916 34.2336H21.571C23.0049 34.2336 24.2549 33.653 25.1841 32.5549C26.1042 31.4679 26.4628 30.1361 26.2205 28.7007L23.5096 13.4453C23.458 13.1568 23.1844 12.9629 22.8939 13.015C22.6048 13.066 22.4125 13.3422 22.4635 13.6307L25.1734 28.8818C25.3615 29.9948 25.0842 31.0281 24.3734 31.8685C23.6413 32.7328 22.6989 33.1711 21.571 33.1711H5.72916C4.60451 33.1711 3.63657 32.7222 2.92735 31.8685C2.20485 31.0148 1.92754 29.9842 2.12675 28.8855L4.82125 13.6317C5.12035 11.961 6.51488 10.7402 8.17982 10.6275V13.4931C8.17982 13.7863 8.41729 14.0243 8.71107 14.0243C9.00432 14.0243 9.24232 13.7863 9.24232 13.4931V10.6058H11.5798V15.7631C11.3078 15.8375 11.0491 15.9618 10.8302 16.1504L9.36769 17.4339C8.92144 17.7994 8.676 18.3253 8.676 18.914V24.2748C8.676 25.357 9.55629 26.2367 10.6379 26.2367H13.5895C14.6712 26.2367 15.5514 25.3564 15.5514 24.2748V18.9145C15.5514 18.3344 15.3145 17.8116 14.8884 17.4461L13.4089 16.1477C13.1879 15.9576 12.9249 15.8327 12.6482 15.7594V10.6058H18.0425V13.4931C18.0425 13.7863 18.2799 14.0243 18.5737 14.0243C18.8675 14.0243 19.105 13.7863 19.105 13.4931V10.6058H24.7176C26.4915 10.6058 28.0066 11.8786 28.3206 13.6307L31.0321 28.8877C31.2302 29.9836 30.9529 31.0148 30.2304 31.8685C29.4983 32.7328 28.5564 33.1711 27.4286 33.1711H26.8713C26.5775 33.1711 26.3401 33.4091 26.3401 33.7024C26.3401 33.9956 26.5775 34.2336 26.8713 34.2336H27.4286C28.8624 34.2336 30.1119 33.653 31.0416 32.5549C31.9761 31.4509 32.3347 30.1175 32.0786 28.7007ZM12.713 16.9494L14.193 18.2478C14.3869 18.4146 14.49 18.6452 14.49 18.914V24.2748C14.49 24.771 14.0863 25.1742 13.5906 25.1742H10.639C10.1428 25.1742 9.73957 24.7705 9.73957 24.2748V18.9145C9.73957 18.642 9.84104 18.4204 10.0557 18.2446L11.5278 16.9526C11.5432 16.9393 11.5639 16.9335 11.5809 16.9213V18.7185C11.5809 19.0138 11.8199 19.2529 12.1153 19.2529C12.4107 19.2529 12.6498 19.0133 12.6498 18.7185V16.9117C12.6694 16.9271 12.6944 16.9335 12.713 16.9494ZM13.7664 9.54325H12.1313C12.1254 9.54325 12.1201 9.54006 12.1148 9.54006C12.1095 9.54006 12.1036 9.54325 12.0983 9.54325H9.24285V8.46322C9.24285 6.04125 11.2202 4.07031 13.6506 4.07031C14.3126 4.07031 14.9384 4.22172 15.5015 4.48469C14.4369 5.48078 13.7664 6.89337 13.7664 8.46269V9.54325ZM18.0435 9.54325H14.8289V8.46322C14.8289 7.09791 15.4558 5.87603 16.436 5.06959C17.4167 5.87603 18.043 7.09737 18.043 8.46322L18.0435 9.54325ZM23.6153 9.54325H19.106V8.46322C19.106 6.89391 18.4356 5.48131 17.371 4.48522C17.9346 4.22172 18.5599 4.07084 19.2218 4.07084C21.6449 4.07084 23.6153 6.04125 23.6153 8.46375V9.54325Z" fill="#25274B"/>
</svg>
