<svg width="708" height="221" viewBox="0 0 708 221" fill="none" xmlns="http://www.w3.org/2000/svg">
<path fill-rule="evenodd" clip-rule="evenodd" d="M0 12.4062C0 5.55447 5.55445 0 12.4062 0H695.594C702.446 0 708 5.55447 708 12.4063V209.852C708 216.009 703.009 221 696.852 221V221C692.248 221 688.286 218.015 685.474 214.37C680.612 208.068 672.984 204.008 664.407 204.008C656.141 204.008 648.755 207.78 643.878 213.696C640.619 217.649 636.224 221 631.101 221H628.29C623.167 221 618.772 217.649 615.513 213.696C610.636 207.78 603.25 204.008 594.984 204.008C586.717 204.008 579.331 207.78 574.454 213.696C571.195 217.649 566.8 221 561.677 221H558.866C553.743 221 549.348 217.649 546.089 213.696C541.212 207.78 533.826 204.008 525.56 204.008C517.293 204.008 509.908 207.78 505.03 213.696C501.772 217.649 497.376 221 492.253 221H489.442C484.319 221 479.924 217.649 476.665 213.696C471.788 207.78 464.402 204.008 456.136 204.008C447.869 204.008 440.484 207.78 435.606 213.696C432.348 217.649 427.952 221 422.829 221H420.018C414.895 221 410.5 217.649 407.242 213.696C402.364 207.78 394.979 204.008 386.712 204.008C378.445 204.008 371.06 207.78 366.182 213.696C362.924 217.649 358.528 221 353.406 221H350.594C345.472 221 341.076 217.649 337.818 213.696C332.94 207.78 325.555 204.008 317.288 204.008C309.022 204.008 301.636 207.78 296.759 213.696C293.5 217.649 289.105 221 283.982 221H281.17C276.048 221 271.652 217.649 268.394 213.696C263.516 207.78 256.131 204.008 247.864 204.008C239.597 204.008 232.212 207.78 227.334 213.696C224.076 217.649 219.681 221 214.558 221H211.747C206.624 221 202.228 217.649 198.97 213.696C194.092 207.78 186.707 204.008 178.44 204.008C170.174 204.008 162.788 207.78 157.911 213.696C154.652 217.649 150.257 221 145.134 221H142.323C137.2 221 132.805 217.649 129.546 213.696C124.669 207.78 117.283 204.008 109.016 204.008C100.75 204.008 93.3643 207.78 88.4869 213.696C85.2283 217.649 80.833 221 75.7101 221H72.899C67.7761 221 63.3808 217.649 60.1222 213.696C55.2448 207.78 47.8592 204.008 39.5927 204.008C30.4329 204.008 22.3547 208.639 17.572 215.687C15.5376 218.686 12.3976 221 8.77444 221V221C3.92845 221 0 217.072 0 212.226V12.4062Z" fill="#151631"/>
</svg>
